<mxfile host="drawio-plugin" modified="2023-09-17T07:28:50.919Z" agent="5.0 (Macintosh; Intel Mac OS X 10_15_7) AppleWebKit/537.36 (KHTML, like Gecko) Chrome/111.0.0.0 Safari/537.36" etag="w3zyBBI6Q7rwtQIPWHmJ" version="20.5.3" type="embed"><diagram id="23iRSUPoRavnBvh4doch" name="Page-1"><mxGraphModel dx="850" dy="1809" grid="1" gridSize="10" guides="1" tooltips="1" connect="1" arrows="1" fold="1" page="1" pageScale="1" pageWidth="827" pageHeight="1169" math="0" shadow="0"><root><mxCell id="0"/><mxCell id="1" parent="0"/><mxCell id="2" value="" style="rounded=1;whiteSpace=wrap;html=1;" vertex="1" parent="1"><mxGeometry x="70" y="130" width="400" height="230" as="geometry"/></mxCell><mxCell id="4" value="" style="rounded=1;whiteSpace=wrap;html=1;" vertex="1" parent="1"><mxGeometry x="560" y="140" width="400" height="230" as="geometry"/></mxCell><mxCell id="5" value="" style="rounded=1;whiteSpace=wrap;html=1;" vertex="1" parent="1"><mxGeometry x="560" y="430" width="400" height="230" as="geometry"/></mxCell><mxCell id="6" value="web" style="text;html=1;strokeColor=none;fillColor=none;align=center;verticalAlign=middle;whiteSpace=wrap;rounded=0;" vertex="1" parent="1"><mxGeometry x="80" y="140" width="60" height="30" as="geometry"/></mxCell><mxCell id="7" value="task" style="text;html=1;strokeColor=none;fillColor=none;align=center;verticalAlign=middle;whiteSpace=wrap;rounded=0;" vertex="1" parent="1"><mxGeometry x="580" y="150" width="60" height="30" as="geometry"/></mxCell><mxCell id="8" value="" style="rounded=1;whiteSpace=wrap;html=1;" vertex="1" parent="1"><mxGeometry x="70" y="430" width="400" height="230" as="geometry"/></mxCell><mxCell id="9" value="redis" style="text;html=1;strokeColor=none;fillColor=none;align=center;verticalAlign=middle;whiteSpace=wrap;rounded=0;" vertex="1" parent="1"><mxGeometry x="90" y="440" width="60" height="30" as="geometry"/></mxCell><mxCell id="10" value="awx-ee" style="text;html=1;strokeColor=none;fillColor=none;align=center;verticalAlign=middle;whiteSpace=wrap;rounded=0;" vertex="1" parent="1"><mxGeometry x="590" y="440" width="60" height="30" as="geometry"/></mxCell><mxCell id="33" style="edgeStyle=orthogonalEdgeStyle;curved=1;rounded=0;orthogonalLoop=1;jettySize=auto;html=1;entryX=0.145;entryY=0;entryDx=0;entryDy=4.35;entryPerimeter=0;dashed=1;" edge="1" parent="1" source="11" target="15"><mxGeometry relative="1" as="geometry"/></mxCell><mxCell id="11" value="uwsgi" style="rounded=0;whiteSpace=wrap;html=1;" vertex="1" parent="1"><mxGeometry x="140" y="170" width="180" height="40" as="geometry"/></mxCell><mxCell id="12" value="daphne" style="rounded=0;whiteSpace=wrap;html=1;" vertex="1" parent="1"><mxGeometry x="140" y="225" width="180" height="40" as="geometry"/></mxCell><mxCell id="13" value="nginx" style="rounded=0;whiteSpace=wrap;html=1;" vertex="1" parent="1"><mxGeometry x="85" y="170" width="50" height="100" as="geometry"/></mxCell><mxCell id="80" style="edgeStyle=orthogonalEdgeStyle;curved=1;rounded=0;orthogonalLoop=1;jettySize=auto;html=1;entryX=1;entryY=0.75;entryDx=0;entryDy=0;dashed=1;exitX=1;exitY=0.25;exitDx=0;exitDy=0;" edge="1" parent="1" source="14" target="63"><mxGeometry relative="1" as="geometry"/></mxCell><mxCell id="14" value="wsbroadcast" style="rounded=0;whiteSpace=wrap;html=1;" vertex="1" parent="1"><mxGeometry x="140" y="280" width="180" height="40" as="geometry"/></mxCell><mxCell id="34" style="edgeStyle=orthogonalEdgeStyle;curved=1;rounded=0;orthogonalLoop=1;jettySize=auto;html=1;entryX=0;entryY=0.5;entryDx=0;entryDy=0;dashed=1;exitX=0.855;exitY=0;exitDx=0;exitDy=4.35;exitPerimeter=0;" edge="1" parent="1" source="15" target="16"><mxGeometry relative="1" as="geometry"><Array as="points"><mxPoint x="531" y="205"/></Array></mxGeometry></mxCell><mxCell id="15" value="pg" style="shape=cylinder3;whiteSpace=wrap;html=1;boundedLbl=1;backgroundOutline=1;size=15;" vertex="1" parent="1"><mxGeometry x="480" y="360" width="60" height="80" as="geometry"/></mxCell><mxCell id="38" style="edgeStyle=orthogonalEdgeStyle;curved=1;rounded=0;orthogonalLoop=1;jettySize=auto;html=1;dashed=1;entryX=0.5;entryY=0;entryDx=0;entryDy=0;" edge="1" parent="1" source="16" target="37"><mxGeometry relative="1" as="geometry"><mxPoint x="862" y="320" as="targetPoint"/><Array as="points"><mxPoint x="920" y="205"/><mxPoint x="920" y="300"/><mxPoint x="890" y="300"/><mxPoint x="890" y="340"/></Array></mxGeometry></mxCell><mxCell id="40" value="ansible-runner transimit" style="edgeLabel;html=1;align=center;verticalAlign=middle;resizable=0;points=[];" vertex="1" connectable="0" parent="38"><mxGeometry x="0.1023" y="-7" relative="1" as="geometry"><mxPoint x="47" y="-11" as="offset"/></mxGeometry></mxCell><mxCell id="48" style="edgeStyle=orthogonalEdgeStyle;curved=1;rounded=0;orthogonalLoop=1;jettySize=auto;html=1;dashed=1;entryX=0.5;entryY=1;entryDx=0;entryDy=0;" edge="1" parent="1" source="16" target="4"><mxGeometry relative="1" as="geometry"><Array as="points"><mxPoint x="810" y="245"/><mxPoint x="880" y="245"/><mxPoint x="880" y="320"/><mxPoint x="760" y="320"/></Array></mxGeometry></mxCell><mxCell id="49" value="receprotctl" style="edgeLabel;html=1;align=center;verticalAlign=middle;resizable=0;points=[];" vertex="1" connectable="0" parent="48"><mxGeometry x="-0.2925" y="1" relative="1" as="geometry"><mxPoint as="offset"/></mxGeometry></mxCell><mxCell id="59" style="edgeStyle=orthogonalEdgeStyle;rounded=0;orthogonalLoop=1;jettySize=auto;html=1;entryX=0;entryY=0.5;entryDx=0;entryDy=0;dashed=1;curved=1;" edge="1" parent="1" source="16" target="55"><mxGeometry relative="1" as="geometry"><Array as="points"><mxPoint x="725" y="230"/><mxPoint x="600" y="230"/><mxPoint x="600" y="330"/></Array></mxGeometry></mxCell><mxCell id="60" value="ansible-runner process" style="edgeLabel;html=1;align=center;verticalAlign=middle;resizable=0;points=[];" vertex="1" connectable="0" parent="59"><mxGeometry x="0.6038" y="-1" relative="1" as="geometry"><mxPoint as="offset"/></mxGeometry></mxCell><mxCell id="16" value="dispatcher" style="rounded=0;whiteSpace=wrap;html=1;" vertex="1" parent="1"><mxGeometry x="640" y="185" width="170" height="25" as="geometry"/></mxCell><mxCell id="66" style="edgeStyle=orthogonalEdgeStyle;curved=1;rounded=0;orthogonalLoop=1;jettySize=auto;html=1;entryX=0.983;entryY=0.106;entryDx=0;entryDy=0;entryPerimeter=0;dashed=1;" edge="1" parent="1" source="17" target="15"><mxGeometry relative="1" as="geometry"><Array as="points"><mxPoint x="560" y="260"/><mxPoint x="560" y="369"/></Array></mxGeometry></mxCell><mxCell id="67" style="edgeStyle=orthogonalEdgeStyle;curved=1;rounded=0;orthogonalLoop=1;jettySize=auto;html=1;entryX=1;entryY=0.25;entryDx=0;entryDy=0;dashed=1;" edge="1" parent="1" source="17" target="52"><mxGeometry relative="1" as="geometry"/></mxCell><mxCell id="68" style="edgeStyle=orthogonalEdgeStyle;curved=1;rounded=0;orthogonalLoop=1;jettySize=auto;html=1;entryX=1;entryY=0.5;entryDx=0;entryDy=0;dashed=1;" edge="1" parent="1" source="17" target="52"><mxGeometry relative="1" as="geometry"/></mxCell><mxCell id="17" value="callback-receiver" style="rounded=0;whiteSpace=wrap;html=1;" vertex="1" parent="1"><mxGeometry x="630" y="240" width="180" height="40" as="geometry"/></mxCell><mxCell id="20" style="edgeStyle=orthogonalEdgeStyle;rounded=0;orthogonalLoop=1;jettySize=auto;html=1;entryX=0.625;entryY=0.2;entryDx=0;entryDy=0;entryPerimeter=0;curved=1;" edge="1" parent="1" source="18" target="19"><mxGeometry relative="1" as="geometry"><Array as="points"><mxPoint x="770" y="730"/><mxPoint x="525" y="730"/></Array></mxGeometry></mxCell><mxCell id="54" style="rounded=0;orthogonalLoop=1;jettySize=auto;html=1;entryX=0.25;entryY=0;entryDx=0;entryDy=0;dashed=1;exitX=0.25;exitY=0;exitDx=0;exitDy=0;" edge="1" parent="1" source="18" target="5"><mxGeometry relative="1" as="geometry"/></mxCell><mxCell id="18" value="receptor" style="rounded=0;whiteSpace=wrap;html=1;" vertex="1" parent="1"><mxGeometry x="630" y="480" width="180" height="40" as="geometry"/></mxCell><mxCell id="25" style="edgeStyle=orthogonalEdgeStyle;curved=1;rounded=0;orthogonalLoop=1;jettySize=auto;html=1;entryX=0;entryY=0.5;entryDx=0;entryDy=0;" edge="1" parent="1" source="19" target="21"><mxGeometry relative="1" as="geometry"/></mxCell><mxCell id="26" style="edgeStyle=orthogonalEdgeStyle;curved=1;rounded=0;orthogonalLoop=1;jettySize=auto;html=1;entryX=0;entryY=0.5;entryDx=0;entryDy=0;" edge="1" parent="1" source="19" target="22"><mxGeometry relative="1" as="geometry"/></mxCell><mxCell id="27" style="edgeStyle=orthogonalEdgeStyle;curved=1;rounded=0;orthogonalLoop=1;jettySize=auto;html=1;entryX=0;entryY=0.5;entryDx=0;entryDy=0;" edge="1" parent="1" source="19" target="23"><mxGeometry relative="1" as="geometry"/></mxCell><mxCell id="28" style="edgeStyle=orthogonalEdgeStyle;curved=1;rounded=0;orthogonalLoop=1;jettySize=auto;html=1;entryX=0;entryY=0.5;entryDx=0;entryDy=0;" edge="1" parent="1" source="19" target="24"><mxGeometry relative="1" as="geometry"/></mxCell><mxCell id="19" value="k8s api-server" style="ellipse;shape=cloud;whiteSpace=wrap;html=1;" vertex="1" parent="1"><mxGeometry x="450" y="890" width="120" height="80" as="geometry"/></mxCell><mxCell id="31" style="edgeStyle=orthogonalEdgeStyle;curved=1;rounded=0;orthogonalLoop=1;jettySize=auto;html=1;entryX=0;entryY=0.5;entryDx=0;entryDy=0;dashed=1;" edge="1" parent="1" source="21" target="29"><mxGeometry relative="1" as="geometry"/></mxCell><mxCell id="21" value="job pod (ansible-runner worker&lt;span style=&quot;background-color: initial;&quot;&gt;)&lt;/span&gt;" style="rounded=1;whiteSpace=wrap;html=1;" vertex="1" parent="1"><mxGeometry x="660" y="740" width="220" height="110" as="geometry"/></mxCell><mxCell id="22" value="job pod" style="rounded=1;whiteSpace=wrap;html=1;" vertex="1" parent="1"><mxGeometry x="660" y="870" width="120" height="40" as="geometry"/></mxCell><mxCell id="23" value="job pod" style="rounded=1;whiteSpace=wrap;html=1;" vertex="1" parent="1"><mxGeometry x="660" y="930" width="120" height="40" as="geometry"/></mxCell><mxCell id="24" value="job pod" style="rounded=1;whiteSpace=wrap;html=1;" vertex="1" parent="1"><mxGeometry x="660" y="1000" width="120" height="40" as="geometry"/></mxCell><mxCell id="29" value="target server" style="rounded=1;whiteSpace=wrap;html=1;" vertex="1" parent="1"><mxGeometry x="1080" y="800" width="120" height="60" as="geometry"/></mxCell><mxCell id="44" style="edgeStyle=orthogonalEdgeStyle;curved=1;rounded=0;orthogonalLoop=1;jettySize=auto;html=1;entryX=0.5;entryY=0;entryDx=0;entryDy=0;dashed=1;" edge="1" parent="1" source="37" target="42"><mxGeometry relative="1" as="geometry"/></mxCell><mxCell id="37" value="socket-in" style="rounded=0;whiteSpace=wrap;html=1;" vertex="1" parent="1"><mxGeometry x="860" y="340" width="70" height="30" as="geometry"/></mxCell><mxCell id="41" value="Text" style="text;html=1;resizable=0;autosize=1;align=center;verticalAlign=middle;points=[];fillColor=none;strokeColor=none;rounded=0;" vertex="1" parent="1"><mxGeometry x="525" y="685" width="50" height="30" as="geometry"/></mxCell><mxCell id="51" style="edgeStyle=orthogonalEdgeStyle;curved=1;rounded=0;orthogonalLoop=1;jettySize=auto;html=1;entryX=0.75;entryY=0;entryDx=0;entryDy=0;dashed=1;" edge="1" parent="1" source="45" target="21"><mxGeometry relative="1" as="geometry"/></mxCell><mxCell id="45" value="payload" style="rounded=0;whiteSpace=wrap;html=1;" vertex="1" parent="1"><mxGeometry x="840" y="560" width="95" height="50" as="geometry"/></mxCell><mxCell id="50" style="rounded=0;orthogonalLoop=1;jettySize=auto;html=1;entryX=0.5;entryY=0;entryDx=0;entryDy=0;dashed=1;" edge="1" parent="1" source="47" target="18"><mxGeometry relative="1" as="geometry"/></mxCell><mxCell id="56" style="rounded=0;orthogonalLoop=1;jettySize=auto;html=1;entryX=0.5;entryY=1;entryDx=0;entryDy=0;dashed=1;exitX=0.25;exitY=0;exitDx=0;exitDy=0;" edge="1" parent="1" source="47" target="55"><mxGeometry relative="1" as="geometry"/></mxCell><mxCell id="47" value="volume: receptor-sock" style="rounded=0;whiteSpace=wrap;html=1;" vertex="1" parent="1"><mxGeometry x="640" y="370" width="150" height="60" as="geometry"/></mxCell><mxCell id="42" value="socket-out" style="rounded=0;whiteSpace=wrap;html=1;" vertex="1" parent="1"><mxGeometry x="880" y="540" width="70" height="30" as="geometry"/></mxCell><mxCell id="30" style="edgeStyle=orthogonalEdgeStyle;curved=1;rounded=0;orthogonalLoop=1;jettySize=auto;html=1;entryX=0.5;entryY=0;entryDx=0;entryDy=0;dashed=1;" edge="1" parent="1" source="18" target="21"><mxGeometry relative="1" as="geometry"><Array as="points"><mxPoint x="810" y="630"/><mxPoint x="770" y="630"/></Array></mxGeometry></mxCell><mxCell id="32" value="work-kubernetes" style="edgeLabel;html=1;align=center;verticalAlign=middle;resizable=0;points=[];" vertex="1" connectable="0" parent="30"><mxGeometry x="-0.4759" y="-2" relative="1" as="geometry"><mxPoint as="offset"/></mxGeometry></mxCell><mxCell id="69" style="edgeStyle=orthogonalEdgeStyle;curved=1;rounded=0;orthogonalLoop=1;jettySize=auto;html=1;entryX=1;entryY=0.5;entryDx=0;entryDy=0;dashed=1;" edge="1" parent="1" source="52" target="64"><mxGeometry relative="1" as="geometry"/></mxCell><mxCell id="70" style="edgeStyle=orthogonalEdgeStyle;curved=1;rounded=0;orthogonalLoop=1;jettySize=auto;html=1;entryX=1;entryY=0.5;entryDx=0;entryDy=0;dashed=1;" edge="1" parent="1" source="52" target="63"><mxGeometry relative="1" as="geometry"><Array as="points"><mxPoint x="210" y="360"/><mxPoint x="370" y="360"/><mxPoint x="370" y="233"/></Array></mxGeometry></mxCell><mxCell id="52" value="django channel" style="rounded=0;whiteSpace=wrap;html=1;" vertex="1" parent="1"><mxGeometry x="150" y="480" width="120" height="60" as="geometry"/></mxCell><mxCell id="65" style="edgeStyle=orthogonalEdgeStyle;curved=1;rounded=0;orthogonalLoop=1;jettySize=auto;html=1;entryX=0;entryY=0.25;entryDx=0;entryDy=0;dashed=1;" edge="1" parent="1" source="53" target="17"><mxGeometry relative="1" as="geometry"><Array as="points"><mxPoint x="460" y="600"/><mxPoint x="460" y="250"/></Array></mxGeometry></mxCell><mxCell id="53" value="job event" style="rounded=0;whiteSpace=wrap;html=1;" vertex="1" parent="1"><mxGeometry x="150" y="570" width="120" height="60" as="geometry"/></mxCell><mxCell id="61" style="edgeStyle=orthogonalEdgeStyle;curved=1;rounded=0;orthogonalLoop=1;jettySize=auto;html=1;entryX=1;entryY=0.5;entryDx=0;entryDy=0;dashed=1;" edge="1" parent="1" source="55" target="53"><mxGeometry relative="1" as="geometry"><Array as="points"><mxPoint x="550" y="330"/><mxPoint x="550" y="600"/></Array></mxGeometry></mxCell><mxCell id="62" value="event handler" style="edgeLabel;html=1;align=center;verticalAlign=middle;resizable=0;points=[];" vertex="1" connectable="0" parent="61"><mxGeometry x="0.271" y="-41" relative="1" as="geometry"><mxPoint as="offset"/></mxGeometry></mxCell><mxCell id="55" value="resultfile" style="rounded=0;whiteSpace=wrap;html=1;" vertex="1" parent="1"><mxGeometry x="620" y="310" width="90" height="40" as="geometry"/></mxCell><mxCell id="63" value="websocket" style="rounded=0;whiteSpace=wrap;html=1;" vertex="1" parent="1"><mxGeometry x="260" y="225" width="60" height="15" as="geometry"/></mxCell><mxCell id="64" value="broadcast" style="rounded=0;whiteSpace=wrap;html=1;" vertex="1" parent="1"><mxGeometry x="260" y="250" width="60" height="15" as="geometry"/></mxCell><mxCell id="71" value="" style="rounded=1;whiteSpace=wrap;html=1;" vertex="1" parent="1"><mxGeometry x="70" y="-140" width="400" height="230" as="geometry"/></mxCell><mxCell id="72" value="another pod" style="text;html=1;strokeColor=none;fillColor=none;align=center;verticalAlign=middle;whiteSpace=wrap;rounded=0;" vertex="1" parent="1"><mxGeometry x="100" y="-130" width="60" height="30" as="geometry"/></mxCell><mxCell id="73" value="uwsgi" style="rounded=0;whiteSpace=wrap;html=1;" vertex="1" parent="1"><mxGeometry x="207.5" y="-110" width="180" height="40" as="geometry"/></mxCell><mxCell id="74" value="daphne" style="rounded=0;whiteSpace=wrap;html=1;" vertex="1" parent="1"><mxGeometry x="207.5" y="-55" width="180" height="40" as="geometry"/></mxCell><mxCell id="75" value="nginx" style="rounded=0;whiteSpace=wrap;html=1;" vertex="1" parent="1"><mxGeometry x="152.5" y="-110" width="50" height="100" as="geometry"/></mxCell><mxCell id="76" value="wsbroadcast" style="rounded=0;whiteSpace=wrap;html=1;" vertex="1" parent="1"><mxGeometry x="207.5" width="180" height="40" as="geometry"/></mxCell><mxCell id="77" value="websocket" style="rounded=0;whiteSpace=wrap;html=1;" vertex="1" parent="1"><mxGeometry x="327.5" y="-55" width="60" height="15" as="geometry"/></mxCell><mxCell id="79" style="edgeStyle=orthogonalEdgeStyle;curved=1;rounded=0;orthogonalLoop=1;jettySize=auto;html=1;entryX=1;entryY=0.5;entryDx=0;entryDy=0;dashed=1;" edge="1" parent="1" source="78" target="14"><mxGeometry relative="1" as="geometry"><Array as="points"><mxPoint x="510" y="-22"/><mxPoint x="510" y="133"/><mxPoint x="430" y="133"/><mxPoint x="430" y="300"/></Array></mxGeometry></mxCell><mxCell id="78" value="broadcast" style="rounded=0;whiteSpace=wrap;html=1;" vertex="1" parent="1"><mxGeometry x="327.5" y="-30" width="60" height="15" as="geometry"/></mxCell></root></mxGraphModel></diagram></mxfile>